Comme-Regular.ufo
<glyph name="percent" format="1">
  <advance width="1623"/>
  <unicode hex="0025"/>
  <outline>
    <contour>
      <point x="1157" y="-4" type="curve" smooth="yes"/>
      <point x="1384" y="-4"/>
      <point x="1469" y="164"/>
      <point x="1469" y="381" type="curve" smooth="yes"/>
      <point x="1469" y="602"/>
      <point x="1387" y="765"/>
      <point x="1157" y="765" type="curve" smooth="yes"/>
      <point x="933" y="765"/>
      <point x="847" y="599"/>
      <point x="847" y="381" type="curve" smooth="yes"/>
      <point x="847" y="164"/>
      <point x="929" y="-4"/>
    </contour>
    <contour>
      <point x="1159" y="100" type="curve" smooth="yes"/>
      <point x="1006" y="100"/>
      <point x="974" y="220"/>
      <point x="974" y="382" type="curve" smooth="yes"/>
      <point x="974" y="540"/>
      <point x="1006" y="660"/>
      <point x="1159" y="660" type="curve" smooth="yes"/>
      <point x="1310" y="660"/>
      <point x="1343" y="546"/>
      <point x="1343" y="382" type="curve" smooth="yes"/>
      <point x="1343" y="224"/>
      <point x="1311" y="100"/>
    </contour>
    <contour>
      <point x="281" y="0" type="line"/>
      <point x="423" y="0" type="line"/>
      <point x="1245" y="1463" type="line"/>
      <point x="1112" y="1463" type="line"/>
    </contour>
    <contour>
      <point x="370" y="715" type="curve" smooth="yes"/>
      <point x="597" y="715"/>
      <point x="682" y="883"/>
      <point x="682" y="1100" type="curve" smooth="yes"/>
      <point x="682" y="1321"/>
      <point x="600" y="1483"/>
      <point x="370" y="1483" type="curve" smooth="yes"/>
      <point x="146" y="1483"/>
      <point x="68" y="1318"/>
      <point x="68" y="1100" type="curve" smooth="yes"/>
      <point x="68" y="883"/>
      <point x="142" y="715"/>
    </contour>
    <contour>
      <point x="372" y="819" type="curve" smooth="yes"/>
      <point x="219" y="819"/>
      <point x="187" y="938"/>
      <point x="187" y="1101" type="curve" smooth="yes"/>
      <point x="187" y="1259"/>
      <point x="219" y="1379"/>
      <point x="372" y="1379" type="curve" smooth="yes"/>
      <point x="523" y="1379"/>
      <point x="556" y="1264"/>
      <point x="556" y="1101" type="curve" smooth="yes"/>
      <point x="556" y="943"/>
      <point x="524" y="819"/>
    </contour>
  </outline>
</glyph>
<glyph name="hyphen" format="1">
  <advance width="862"/>
  <unicode hex="002D"/>
  <outline>
    <contour>
      <point x="172" y="525" type="line"/>
      <point x="681" y="525" type="line"/>
      <point x="681" y="666" type="line"/>
      <point x="172" y="666" type="line"/>
    </contour>
  </outline>
</glyph>
<glyph name="A" format="1">
  <advance width="1419"/>
  <unicode hex="0041"/>
  <outline>
    <contour>
      <point x="708" y="0" type="move" name="bot"/>
    </contour>
    <contour>
      <point x="706" y="1456" type="move" name="top"/>
    </contour>
    <contour>
      <point x="608" y="1456" type="line"/>
      <point x="63" y="0" type="line"/>
      <point x="255" y="0" type="line"/>
      <point x="422" y="453" type="line"/>
      <point x="995" y="453" type="line"/>
      <point x="1163" y="0" type="line"/>
      <point x="1356" y="0" type="line"/>
      <point x="806" y="1456" type="line"/>
    </contour>
    <contour>
      <point x="467" y="588" type="line"/>
      <point x="708" y="1268" type="line"/>
      <point x="950" y="588" type="line"/>
    </contour>
  </outline>
</glyph>
<glyph name="G" format="1">
  <advance width="1478"/>
  <unicode hex="0047"/>
  <outline>
    <contour>
      <point x="805" y="1" type="move" name="bot"/>
    </contour>
    <contour>
      <point x="799" y="1456" type="move" name="top"/>
    </contour>
    <contour>
      <point x="822" y="-20" type="curve" smooth="yes"/>
      <point x="1022" y="-20"/>
      <point x="1184" y="14"/>
      <point x="1332" y="73" type="curve"/>
      <point x="1332" y="769" type="line"/>
      <point x="837" y="769" type="line"/>
      <point x="828" y="640" type="line"/>
      <point x="1155" y="618" type="line"/>
      <point x="1155" y="175" type="line"/>
      <point x="1086" y="155"/>
      <point x="987" y="133"/>
      <point x="856" y="133" type="curve" smooth="yes"/>
      <point x="487" y="133"/>
      <point x="350" y="366"/>
      <point x="350" y="737" type="curve" smooth="yes"/>
      <point x="350" y="1089"/>
      <point x="522" y="1323"/>
      <point x="854" y="1323" type="curve" smooth="yes"/>
      <point x="1036" y="1323"/>
      <point x="1160" y="1246"/>
      <point x="1223" y="1176" type="curve"/>
      <point x="1240" y="1176" type="line"/>
      <point x="1336" y="1282" type="line"/>
      <point x="1249" y="1393"/>
      <point x="1072" y="1476"/>
      <point x="848" y="1476" type="curve" smooth="yes"/>
      <point x="409" y="1476"/>
      <point x="152" y="1188"/>
      <point x="152" y="736" type="curve" smooth="yes"/>
      <point x="152" y="288"/>
      <point x="373" y="-20"/>
    </contour>
  </outline>
</glyph>
<glyph name="M" format="1">
  <advance width="1815"/>
  <unicode hex="004D"/>
  <outline>
    <contour>
      <point x="921" y="1456" type="move" name="top"/>
    </contour>
    <contour>
      <point x="183" y="-1" type="line"/>
      <point x="366" y="-1" type="line"/>
      <point x="366" y="479" type="line"/>
      <point x="375" y="1203" type="line"/>
      <point x="828" y="173" type="line"/>
      <point x="986" y="173" type="line"/>
      <point x="1442" y="1193" type="line"/>
      <point x="1450" y="482" type="line"/>
      <point x="1450" y="-1" type="line"/>
      <point x="1632" y="-1" type="line"/>
      <point x="1632" y="486" type="line"/>
      <point x="1608" y="1456" type="line"/>
      <point x="1383" y="1456" type="line"/>
      <point x="909" y="396" type="line"/>
      <point x="438" y="1456" type="line"/>
      <point x="207" y="1456" type="line"/>
      <point x="183" y="485" type="line"/>
    </contour>
  </outline>
</glyph>
<glyph name="P" format="1">
  <advance width="1307"/>
  <unicode hex="0050"/>
  <outline>
    <contour>
      <point x="692" y="1456" type="move" name="top"/>
    </contour>
    <contour>
      <point x="203" y="1434" type="curve"/>
      <point x="203" y="0" type="line"/>
      <point x="397" y="0" type="line"/>
      <point x="397" y="636" type="line"/>
      <point x="475" y="629"/>
      <point x="546" y="627"/>
      <point x="610" y="627" type="curve" smooth="yes"/>
      <point x="1101" y="627"/>
      <point x="1213" y="811"/>
      <point x="1213" y="1063" type="curve" smooth="yes"/>
      <point x="1213" y="1329"/>
      <point x="1066" y="1463"/>
      <point x="625" y="1463" type="curve" smooth="yes"/>
      <point x="507" y="1463"/>
      <point x="367" y="1453"/>
    </contour>
    <contour>
      <point x="397" y="774" type="curve"/>
      <point x="397" y="1313" type="line"/>
      <point x="489" y="1322"/>
      <point x="569" y="1326"/>
      <point x="637" y="1326" type="curve" smooth="yes"/>
      <point x="964" y="1326"/>
      <point x="1034" y="1228"/>
      <point x="1034" y="1059" type="curve" smooth="yes"/>
      <point x="1034" y="876"/>
      <point x="969" y="764"/>
      <point x="611" y="764" type="curve" smooth="yes"/>
      <point x="549" y="764"/>
      <point x="478" y="767"/>
    </contour>
  </outline>
</glyph>
<glyph name="S" format="1">
  <advance width="1222"/>
  <unicode hex="0053"/>
  <outline>
    <contour>
      <point x="623" y="0" type="move" name="bot"/>
    </contour>
    <contour>
      <point x="620" y="1474" type="move" name="top"/>
    </contour>
    <contour>
      <point x="917" y="384" type="curve" smooth="yes"/>
      <point x="917" y="201"/>
      <point x="779" y="134"/>
      <point x="598" y="134" type="curve" smooth="yes"/>
      <point x="465" y="134"/>
      <point x="326" y="181"/>
      <point x="232" y="274" type="curve"/>
      <point x="219" y="274" type="line"/>
      <point x="112" y="171" type="line"/>
      <point x="194" y="71"/>
      <point x="367" y="-20"/>
      <point x="599" y="-20" type="curve" smooth="yes"/>
      <point x="843" y="-20"/>
      <point x="1102" y="79"/>
      <point x="1102" y="383" type="curve" smooth="yes"/>
      <point x="1102" y="642"/>
      <point x="963" y="713"/>
      <point x="725" y="808" type="curve"/>
      <point x="520" y="891" type="line"/>
      <point x="360" y="957"/>
      <point x="312" y="993"/>
      <point x="312" y="1106" type="curve" smooth="yes"/>
      <point x="312" y="1273"/>
      <point x="449" y="1324"/>
      <point x="612" y="1324" type="curve" smooth="yes"/>
      <point x="759" y="1324"/>
      <point x="886" y="1273"/>
      <point x="962" y="1185" type="curve"/>
      <point x="977" y="1185" type="line"/>
      <point x="1081" y="1289" type="line"/>
      <point x="980" y="1405"/>
      <point x="813" y="1476"/>
      <point x="620" y="1476" type="curve" smooth="yes"/>
      <point x="360" y="1476"/>
      <point x="117" y="1393"/>
      <point x="117" y="1083" type="curve" smooth="yes"/>
      <point x="117" y="879"/>
      <point x="233" y="816"/>
      <point x="435" y="734" type="curve" smooth="yes"/>
      <point x="638" y="650" type="line" smooth="yes"/>
      <point x="852" y="561"/>
      <point x="917" y="522"/>
    </contour>
  </outline>
</glyph>
<glyph name="e" format="1">
  <advance width="1143"/>
  <unicode hex="0065"/>
  <outline>
    <contour>
      <point x="631" y="1" type="move" name="bot"/>
    </contour>
    <contour>
      <point x="625" y="1082" type="move" name="top"/>
    </contour>
    <contour>
      <point x="309" y="627" type="line"/>
      <point x="328" y="839"/>
      <point x="450" y="971"/>
      <point x="625" y="971" type="curve" smooth="yes"/>
      <point x="798" y="971"/>
      <point x="879" y="844"/>
      <point x="882" y="627" type="curve"/>
    </contour>
    <contour>
      <point x="1029" y="509" type="line"/>
      <point x="1029" y="512"/>
      <point x="1038" y="589"/>
      <point x="1038" y="620" type="curve" smooth="yes"/>
      <point x="1038" y="920"/>
      <point x="881" y="1106"/>
      <point x="616" y="1106" type="curve" smooth="yes"/>
      <point x="343" y="1106"/>
      <point x="120" y="898"/>
      <point x="120" y="538" type="curve" smooth="yes"/>
      <point x="120" y="191"/>
      <point x="345" y="-20"/>
      <point x="638" y="-20" type="curve" smooth="yes"/>
      <point x="790" y="-20"/>
      <point x="919" y="25"/>
      <point x="1008" y="87" type="curve"/>
      <point x="966" y="206" type="line"/>
      <point x="953" y="206" type="line"/>
      <point x="864" y="155"/>
      <point x="785" y="115"/>
      <point x="661" y="115" type="curve" smooth="yes"/>
      <point x="467" y="115"/>
      <point x="322" y="233"/>
      <point x="306" y="509" type="curve"/>
    </contour>
  </outline>
</glyph>
<glyph name="i" format="1">
  <advance width="594"/>
  <unicode hex="0069"/>
  <outline>
    <contour>
      <point x="444" y="1431" type="curve" smooth="yes"/>
      <point x="444" y="1508"/>
      <point x="396" y="1556"/>
      <point x="312" y="1556" type="curve" smooth="yes"/>
      <point x="228" y="1556"/>
      <point x="180" y="1508"/>
      <point x="180" y="1431" type="curve" smooth="yes"/>
      <point x="180" y="1351"/>
      <point x="228" y="1302"/>
      <point x="312" y="1302" type="curve" smooth="yes"/>
      <point x="396" y="1302"/>
      <point x="444" y="1351"/>
    </contour>
    <contour>
      <point x="219" y="1082" type="line"/>
      <point x="219" y="0" type="line"/>
      <point x="401" y="0" type="line"/>
      <point x="401" y="1082" type="line"/>
    </contour>
  </outline>
</glyph>
<glyph name="j" format="1">
  <advance width="587"/>
  <unicode hex="006A"/>
  <outline>
    <contour>
      <point x="451" y="1431" type="curve" smooth="yes"/>
      <point x="451" y="1508"/>
      <point x="403" y="1556"/>
      <point x="319" y="1556" type="curve" smooth="yes"/>
      <point x="235" y="1556"/>
      <point x="187" y="1508"/>
      <point x="187" y="1431" type="curve" smooth="yes"/>
      <point x="187" y="1351"/>
      <point x="235" y="1302"/>
      <point x="319" y="1302" type="curve" smooth="yes"/>
      <point x="403" y="1302"/>
      <point x="451" y="1351"/>
    </contour>
    <contour>
      <point x="239" y="1082" type="line"/>
      <point x="239" y="19" type="line" smooth="yes"/>
      <point x="239" y="-167"/>
      <point x="235" y="-204"/>
      <point x="84" y="-238" type="curve" smooth="yes"/>
      <point x="19" y="-253" type="line"/>
      <point x="48" y="-395" type="line"/>
      <point x="110" y="-385" type="line"/>
      <point x="334" y="-350"/>
      <point x="421" y="-275"/>
      <point x="421" y="-12" type="curve" smooth="yes"/>
      <point x="421" y="1082" type="line"/>
    </contour>
  </outline>
</glyph>
<glyph name="p" format="1">
  <advance width="1222"/>
  <unicode hex="0070"/>
  <outline>
    <contour>
      <point x="669" y="1082" type="move" name="top"/>
    </contour>
    <contour>
      <point x="630" y="115" type="curve" smooth="yes"/>
      <point x="513" y="115"/>
      <point x="411" y="159"/>
      <point x="345" y="250" type="curve"/>
      <point x="345" y="575" type="line"/>
      <point x="347" y="810"/>
      <point x="435" y="970"/>
      <point x="649" y="970" type="curve" smooth="yes"/>
      <point x="852" y="970"/>
      <point x="917" y="792"/>
      <point x="917" y="542" type="curve" smooth="yes"/>
      <point x="917" y="276"/>
      <point x="829" y="115"/>
    </contour>
    <contour>
      <point x="170" y="-458" type="line"/>
      <point x="351" y="-458" type="line"/>
      <point x="351" y="-67" type="line"/>
      <point x="346" y="89" type="line"/>
      <point x="413" y="21"/>
      <point x="514" y="-20"/>
      <point x="646" y="-20" type="curve" smooth="yes"/>
      <point x="930" y="-20"/>
      <point x="1104" y="211"/>
      <point x="1104" y="540" type="curve" smooth="yes"/>
      <point x="1104" y="877"/>
      <point x="968" y="1106"/>
      <point x="675" y="1106" type="curve" smooth="yes"/>
      <point x="513" y="1106"/>
      <point x="392" y="1023"/>
      <point x="339" y="859" type="curve"/>
      <point x="322" y="1082" type="line"/>
      <point x="170" y="1082" type="line"/>
    </contour>
  </outline>
</glyph>
<glyph name="u" format="1">
  <advance width="1213"/>
  <unicode hex="0075"/>
  <outline>
    <contour>
      <point x="570" y="1" type="move" name="bot"/>
    </contour>
    <contour>
      <point x="622" y="1083" type="move" name="top"/>
    </contour>
    <contour>
      <point x="866" y="259" type="line"/>
      <point x="825" y="205"/>
      <point x="739" y="113"/>
      <point x="568" y="113" type="curve" smooth="yes"/>
      <point x="398" y="113"/>
      <point x="336" y="221"/>
      <point x="336" y="408" type="curve" smooth="yes"/>
      <point x="336" y="1082" type="line"/>
      <point x="154" y="1082" type="line"/>
      <point x="154" y="404" type="line" smooth="yes"/>
      <point x="154" y="121"/>
      <point x="287" y="-20"/>
      <point x="543" y="-20" type="curve" smooth="yes"/>
      <point x="702" y="-20"/>
      <point x="808" y="44"/>
      <point x="880" y="135" type="curve"/>
      <point x="890" y="0" type="line"/>
      <point x="1047" y="0" type="line"/>
      <point x="1047" y="1082" type="line"/>
      <point x="866" y="1082" type="line"/>
    </contour>
  </outline>
</glyph>
<glyph name="asciitilde" format="1">
  <advance width="1192"/>
  <unicode hex="007E"/>
  <outline>
    <contour>
      <point x="356" y="649" type="curve" smooth="yes"/>
      <point x="477" y="649"/>
      <point x="687" y="503"/>
      <point x="825" y="503" type="curve" smooth="yes"/>
      <point x="950" y="503"/>
      <point x="1032" y="582"/>
      <point x="1081" y="703" type="curve"/>
      <point x="1030" y="798" type="line"/>
      <point x="988" y="711"/>
      <point x="910" y="642"/>
      <point x="829" y="642" type="curve" smooth="yes"/>
      <point x="769" y="642"/>
      <point x="691" y="680"/>
      <point x="597" y="721" type="curve" smooth="yes"/>
      <point x="499" y="765"/>
      <point x="439" y="789"/>
      <point x="360" y="789" type="curve" smooth="yes"/>
      <point x="230" y="789"/>
      <point x="144" y="701"/>
      <point x="98" y="591" type="curve"/>
      <point x="144" y="489" type="line"/>
      <point x="189" y="576"/>
      <point x="268" y="649"/>
    </contour>
  </outline>
</glyph>
<glyph name="brokenbar" format="1">
  <advance width="663"/>
  <unicode hex="00A6"/>
  <outline>
    <contour>
      <point x="267" y="1571" type="line"/>
      <point x="267" y="819" type="line"/>
      <point x="400" y="819" type="line"/>
      <point x="400" y="1571" type="line"/>
    </contour>
    <contour>
      <point x="267" y="531" type="line"/>
      <point x="267" y="-225" type="line"/>
      <point x="400" y="-225" type="line"/>
      <point x="400" y="531" type="line"/>
    </contour>
  </outline>
</glyph>
<glyph name="section" format="1">
  <advance width="1074"/>
  <unicode hex="00A7"/>
  <outline>
    <contour>
      <point x="691" y="573" type="curve"/>
      <point x="664" y="585"/>
      <point x="627" y="600"/>
      <point x="495" y="640" type="curve" smooth="yes"/>
      <point x="357" y="686"/>
      <point x="325" y="711"/>
      <point x="325" y="794" type="curve" smooth="yes"/>
      <point x="325" y="851"/>
      <point x="343" y="892"/>
      <point x="389" y="918" type="curve"/>
      <point x="398" y="913"/>
      <point x="415" y="907"/>
      <point x="536" y="867" type="curve" smooth="yes"/>
      <point x="688" y="818"/>
      <point x="731" y="766"/>
      <point x="731" y="692" type="curve" smooth="yes"/>
      <point x="731" y="642"/>
      <point x="717" y="601"/>
    </contour>
    <contour>
      <point x="516" y="-20" type="curve" smooth="yes"/>
      <point x="715" y="-20"/>
      <point x="883" y="68"/>
      <point x="883" y="293" type="curve" smooth="yes"/>
      <point x="883" y="381"/>
      <point x="865" y="445"/>
      <point x="812" y="498" type="curve"/>
      <point x="856" y="547"/>
      <point x="883" y="612"/>
      <point x="883" y="699" type="curve" smooth="yes"/>
      <point x="883" y="855"/>
      <point x="830" y="937"/>
      <point x="600" y="1011" type="curve" smooth="yes"/>
      <point x="360" y="1088"/>
      <point x="331" y="1114"/>
      <point x="331" y="1196" type="curve" smooth="yes"/>
      <point x="331" y="1289"/>
      <point x="384" y="1347"/>
      <point x="537" y="1347" type="curve" smooth="yes"/>
      <point x="645" y="1347"/>
      <point x="742" y="1308"/>
      <point x="802" y="1278" type="curve"/>
      <point x="843" y="1406" type="line"/>
      <point x="751" y="1453"/>
      <point x="643" y="1483"/>
      <point x="519" y="1483" type="curve" smooth="yes"/>
      <point x="295" y="1483"/>
      <point x="166" y="1368"/>
      <point x="166" y="1189" type="curve" smooth="yes"/>
      <point x="166" y="1108"/>
      <point x="188" y="1042"/>
      <point x="256" y="988" type="curve"/>
      <point x="199" y="937"/>
      <point x="167" y="865"/>
      <point x="167" y="784" type="curve" smooth="yes"/>
      <point x="167" y="655"/>
      <point x="219" y="570"/>
      <point x="417" y="505" type="curve" smooth="yes"/>
      <point x="683" y="418"/>
      <point x="725" y="368"/>
      <point x="725" y="291" type="curve" smooth="yes"/>
      <point x="724" y="178"/>
      <point x="653" y="115"/>
      <point x="532" y="115" type="curve" smooth="yes"/>
      <point x="523" y="115" type="line" smooth="yes"/>
      <point x="411" y="115"/>
      <point x="303" y="150"/>
      <point x="188" y="206" type="curve"/>
      <point x="188" y="59" type="line"/>
      <point x="289" y="10"/>
      <point x="407" y="-20"/>
    </contour>
  </outline>
</glyph>
<glyph name="eng" format="1">
  <advance width="1197"/>
  <unicode hex="014B"/>
  <outline>
    <component base="n"/>
    <contour>
      <point x="874" y="126" type="line"/>
      <point x="874" y="-11" type="line"/>
      <point x="873" y="-227"/>
      <point x="837" y="-293"/>
      <point x="467" y="-293" type="curve"/>
      <point x="469" y="-434" type="line"/>
      <point x="913" y="-433"/>
      <point x="1055" y="-343"/>
      <point x="1055" y="-14" type="curve" smooth="yes"/>
      <point x="1055" y="126" type="line"/>
    </contour>
  </outline>
</glyph>
<glyph name="OE" format="1">
  <advance width="2355"/>
  <unicode hex="0152"/>
  <outline>
    <contour>
      <point x="1251" y="721" type="curve" smooth="yes"/>
      <point x="1251" y="371"/>
      <point x="1132" y="133"/>
      <point x="792" y="133" type="curve" smooth="yes"/>
      <point x="452" y="133"/>
      <point x="331" y="371"/>
      <point x="331" y="721" type="curve" smooth="yes"/>
      <point x="331" y="1086"/>
      <point x="463" y="1324"/>
      <point x="793" y="1324" type="curve" smooth="yes"/>
      <point x="1125" y="1324"/>
      <point x="1251" y="1084"/>
    </contour>
    <contour>
      <point x="140" y="722" type="curve" smooth="yes"/>
      <point x="140" y="267"/>
      <point x="348" y="-20"/>
      <point x="793" y="-20" type="curve" smooth="yes"/>
      <point x="998" y="-20"/>
      <point x="1157" y="52"/>
      <point x="1252" y="180" type="curve"/>
      <point x="1252" y="0" type="line"/>
      <point x="2210" y="0" type="line"/>
      <point x="2221" y="147" type="line"/>
      <point x="1439" y="147" type="line"/>
      <point x="1439" y="680" type="line"/>
      <point x="2140" y="680" type="line"/>
      <point x="2140" y="826" type="line"/>
      <point x="1439" y="826" type="line"/>
      <point x="1439" y="1311" type="line"/>
      <point x="2198" y="1311" type="line"/>
      <point x="2206" y="1456" type="line"/>
      <point x="1252" y="1456" type="line"/>
      <point x="1252" y="1270" type="line"/>
      <point x="1156" y="1403"/>
      <point x="995" y="1477"/>
      <point x="794" y="1477" type="curve" smooth="yes"/>
      <point x="358" y="1477"/>
      <point x="140" y="1187"/>
    </contour>
  </outline>
</glyph>
<glyph name="uni02BC" format="1">
  <advance width="645"/>
  <unicode hex="02BC"/>
  <outline>
    <contour>
      <point x="115" y="1154" type="curve"/>
      <point x="257" y="1154" type="line"/>
      <point x="257" y="1154"/>
      <point x="352" y="1502"/>
      <point x="368" y="1591" type="curve"/>
      <point x="180" y="1591" type="line"/>
      <point x="175" y="1546"/>
      <point x="115" y="1154"/>
    </contour>
  </outline>
</glyph>
<glyph name="ogonek" format="1">
  <advance width="766"/>
  <unicode hex="02DB"/>
  <outline>
    <contour>
      <point x="442" y="-423" type="curve" smooth="yes"/>
      <point x="493" y="-423"/>
      <point x="556" y="-408"/>
      <point x="591" y="-392" type="curve"/>
      <point x="588" y="-283" type="line"/>
      <point x="570" y="-291"/>
      <point x="521" y="-308"/>
      <point x="478" y="-308" type="curve" smooth="yes"/>
      <point x="433" y="-308"/>
      <point x="396" y="-284"/>
      <point x="396" y="-228" type="curve" smooth="yes"/>
      <point x="396" y="-152"/>
      <point x="478" y="-41"/>
      <point x="539" y="4" type="curve"/>
      <point x="455" y="4" type="line"/>
      <point x="354" y="-38"/>
      <point x="251" y="-153"/>
      <point x="251" y="-269" type="curve" smooth="yes"/>
      <point x="251" y="-364"/>
      <point x="318" y="-423"/>
    </contour>
  </outline>
</glyph>
<glyph name="uni030F" format="1">
  <advance width="890"/>
  <unicode hex="030F"/>
  <outline>
    <contour>
      <point x="484" y="1066" type="move" name="_top"/>
    </contour>
    <contour>
      <point x="560" y="1247" type="line"/>
      <point x="672" y="1247" type="line"/>
      <point x="540" y="1598" type="line"/>
      <point x="373" y="1598" type="line"/>
    </contour>
    <contour>
      <point x="285" y="1247" type="line"/>
      <point x="393" y="1247" type="line"/>
      <point x="244" y="1598" type="line"/>
      <point x="60" y="1598" type="line"/>
    </contour>
  </outline>
</glyph>
<glyph name="uni0312" format="1">
  <advance width="600"/>
  <unicode hex="0312"/>
  <outline>
    <contour>
      <point x="296" y="1066" type="move" name="_top"/>
    </contour>
    <contour>
      <point x="198" y="1304" type="curve"/>
      <point x="194" y="1282" type="line"/>
      <point x="391" y="1282" type="line"/>
      <point x="391" y="1351"/>
      <point x="423" y="1784"/>
      <point x="423" y="1784" type="curve"/>
      <point x="304" y="1784" type="line"/>
      <point x="304" y="1784"/>
      <point x="198" y="1344"/>
    </contour>
  </outline>
</glyph>
<glyph name="partialdiff" format="1">
  <advance width="1183"/>
  <unicode hex="2202"/>
  <outline>
    <contour>
      <point x="485" y="89" type="curve" smooth="yes"/>
      <point x="404" y="89"/>
      <point x="364" y="163"/>
      <point x="364" y="265" type="curve" smooth="yes"/>
      <point x="364" y="480"/>
      <point x="540" y="816"/>
      <point x="868" y="829" type="curve"/>
      <point x="849" y="542"/>
      <point x="738" y="89"/>
    </contour>
    <contour>
      <point x="471" y="-19" type="curve" smooth="yes"/>
      <point x="814" y="-19"/>
      <point x="1047" y="382"/>
      <point x="1047" y="908" type="curve" smooth="yes"/>
      <point x="1047" y="1317"/>
      <point x="816" y="1560"/>
      <point x="529" y="1560" type="curve" smooth="yes"/>
      <point x="436" y="1560"/>
      <point x="337" y="1534"/>
      <point x="238" y="1480" type="curve"/>
      <point x="277" y="1381" type="line"/>
      <point x="349" y="1415"/>
      <point x="421" y="1431"/>
      <point x="487" y="1431" type="curve" smooth="yes"/>
      <point x="705" y="1431"/>
      <point x="874" y="1257"/>
      <point x="874" y="966" type="curve" smooth="yes"/>
      <point x="874" y="952"/>
      <point x="874" y="937"/>
      <point x="873" y="922" type="curve"/>
      <point x="418" y="920"/>
      <point x="164" y="563"/>
      <point x="164" y="289" type="curve" smooth="yes"/>
      <point x="164" y="119"/>
      <point x="262" y="-19"/>
    </contour>
  </outline>
</glyph>
